<mxfile host="65bd71144e">
    <diagram id="g-5wZyXsd9xrYKV7RMMx" name="PÃ¡gina-1">
        <mxGraphModel dx="1353" dy="1188" grid="1" gridSize="10" guides="1" tooltips="1" connect="1" arrows="1" fold="1" page="1" pageScale="1" pageWidth="827" pageHeight="1169" math="0" shadow="0">
            <root>
                <mxCell id="0"/>
                <mxCell id="1" parent="0"/>
                <mxCell id="3" value="" style="rounded=0;whiteSpace=wrap;html=1;" parent="1" vertex="1">
                    <mxGeometry x="200" y="80" width="440" height="120" as="geometry"/>
                </mxCell>
                <mxCell id="5" value="" style="shape=curlyBracket;whiteSpace=wrap;html=1;rounded=1;labelPosition=left;verticalLabelPosition=middle;align=right;verticalAlign=middle;" parent="1" vertex="1">
                    <mxGeometry x="260" y="80" width="20" height="120" as="geometry"/>
                </mxCell>
                <mxCell id="6" value="Nixon" style="text;strokeColor=none;fillColor=none;html=1;fontSize=24;fontStyle=1;verticalAlign=middle;align=center;horizontal=0;" parent="1" vertex="1">
                    <mxGeometry x="220" y="120" width="20" height="40" as="geometry"/>
                </mxCell>
                <mxCell id="8" value="LangChain" style="text;strokeColor=none;fillColor=none;html=1;fontSize=24;fontStyle=1;verticalAlign=middle;align=left;" parent="1" vertex="1">
                    <mxGeometry x="280" y="90" width="350" height="40" as="geometry"/>
                </mxCell>
                <mxCell id="9" value="" style="rounded=0;whiteSpace=wrap;html=1;" parent="1" vertex="1">
                    <mxGeometry x="200" y="200" width="440" height="120" as="geometry"/>
                </mxCell>
                <mxCell id="10" value="" style="shape=curlyBracket;whiteSpace=wrap;html=1;rounded=1;labelPosition=left;verticalLabelPosition=middle;align=right;verticalAlign=middle;" parent="1" vertex="1">
                    <mxGeometry x="260" y="200" width="20" height="120" as="geometry"/>
                </mxCell>
                <mxCell id="11" value="Julian" style="text;strokeColor=none;fillColor=none;html=1;fontSize=24;fontStyle=1;verticalAlign=middle;align=center;horizontal=0;" parent="1" vertex="1">
                    <mxGeometry x="220" y="240" width="20" height="40" as="geometry"/>
                </mxCell>
                <mxCell id="12" value="Documentos" style="text;strokeColor=none;fillColor=none;html=1;fontSize=24;fontStyle=1;verticalAlign=middle;align=left;" parent="1" vertex="1">
                    <mxGeometry x="280" y="210" width="350" height="40" as="geometry"/>
                </mxCell>
                <mxCell id="13" value="" style="rounded=0;whiteSpace=wrap;html=1;" parent="1" vertex="1">
                    <mxGeometry x="200" y="320" width="440" height="120" as="geometry"/>
                </mxCell>
                <mxCell id="14" value="" style="shape=curlyBracket;whiteSpace=wrap;html=1;rounded=1;labelPosition=left;verticalLabelPosition=middle;align=right;verticalAlign=middle;" parent="1" vertex="1">
                    <mxGeometry x="260" y="320" width="20" height="120" as="geometry"/>
                </mxCell>
                <mxCell id="15" value="David" style="text;strokeColor=none;fillColor=none;html=1;fontSize=24;fontStyle=1;verticalAlign=middle;align=center;horizontal=0;" parent="1" vertex="1">
                    <mxGeometry x="220" y="360" width="20" height="40" as="geometry"/>
                </mxCell>
                <mxCell id="16" value="Colecciones" style="text;strokeColor=none;fillColor=none;html=1;fontSize=24;fontStyle=1;verticalAlign=middle;align=left;" parent="1" vertex="1">
                    <mxGeometry x="280" y="330" width="350" height="40" as="geometry"/>
                </mxCell>
                <mxCell id="17" value="" style="rounded=0;whiteSpace=wrap;html=1;" parent="1" vertex="1">
                    <mxGeometry x="200" y="440" width="440" height="120" as="geometry"/>
                </mxCell>
                <mxCell id="18" value="" style="shape=curlyBracket;whiteSpace=wrap;html=1;rounded=1;labelPosition=left;verticalLabelPosition=middle;align=right;verticalAlign=middle;" parent="1" vertex="1">
                    <mxGeometry x="260" y="440" width="20" height="120" as="geometry"/>
                </mxCell>
                <mxCell id="19" value="Carlos" style="text;strokeColor=none;fillColor=none;html=1;fontSize=24;fontStyle=1;verticalAlign=middle;align=center;horizontal=0;" parent="1" vertex="1">
                    <mxGeometry x="220" y="480" width="20" height="40" as="geometry"/>
                </mxCell>
                <mxCell id="20" value="Base de datos vectorial" style="text;strokeColor=none;fillColor=none;html=1;fontSize=24;fontStyle=1;verticalAlign=middle;align=left;" parent="1" vertex="1">
                    <mxGeometry x="280" y="450" width="350" height="40" as="geometry"/>
                </mxCell>
                <mxCell id="21" value="" style="rounded=0;whiteSpace=wrap;html=1;" parent="1" vertex="1">
                    <mxGeometry x="200" y="560" width="440" height="120" as="geometry"/>
                </mxCell>
                <mxCell id="22" value="" style="shape=curlyBracket;whiteSpace=wrap;html=1;rounded=1;labelPosition=left;verticalLabelPosition=middle;align=right;verticalAlign=middle;" parent="1" vertex="1">
                    <mxGeometry x="260" y="560" width="20" height="120" as="geometry"/>
                </mxCell>
                <mxCell id="23" value="Juan" style="text;strokeColor=none;fillColor=none;html=1;fontSize=24;fontStyle=1;verticalAlign=middle;align=center;horizontal=0;" parent="1" vertex="1">
                    <mxGeometry x="220" y="600" width="20" height="40" as="geometry"/>
                </mxCell>
                <mxCell id="24" value="Login&lt;br&gt;Base de datos" style="text;strokeColor=none;fillColor=none;html=1;fontSize=24;fontStyle=1;verticalAlign=middle;align=left;" parent="1" vertex="1">
                    <mxGeometry x="280" y="570" width="350" height="40" as="geometry"/>
                </mxCell>
                <mxCell id="29" value="" style="rounded=0;whiteSpace=wrap;html=1;" vertex="1" parent="1">
                    <mxGeometry x="200" y="680" width="440" height="120" as="geometry"/>
                </mxCell>
                <mxCell id="30" value="" style="shape=curlyBracket;whiteSpace=wrap;html=1;rounded=1;labelPosition=left;verticalLabelPosition=middle;align=right;verticalAlign=middle;" vertex="1" parent="1">
                    <mxGeometry x="260" y="680" width="20" height="120" as="geometry"/>
                </mxCell>
                <mxCell id="31" value="Claudio" style="text;strokeColor=none;fillColor=none;html=1;fontSize=24;fontStyle=1;verticalAlign=middle;align=center;horizontal=0;" vertex="1" parent="1">
                    <mxGeometry x="220" y="720" width="20" height="40" as="geometry"/>
                </mxCell>
                <mxCell id="32" value="Modelos IA" style="text;strokeColor=none;fillColor=none;html=1;fontSize=24;fontStyle=1;verticalAlign=middle;align=left;" vertex="1" parent="1">
                    <mxGeometry x="280" y="690" width="350" height="40" as="geometry"/>
                </mxCell>
            </root>
        </mxGraphModel>
    </diagram>
</mxfile>